<?xml version="1.0" encoding="UTF-8"?>
<svg id="Layer_2" data-name="Layer 2" xmlns="http://www.w3.org/2000/svg" viewBox="0 0 53.54 31.9">
  <defs>
    <style>
      .cls-1 {
        fill: #f7c800;
      }
    </style>
  </defs>
  <g id="Layer_2-2" data-name="Layer 2">
    <g id="LOGO_Image" data-name="LOGO Image">
      <path class="cls-1" d="m21.38.01C26.96.01,32.53.02,38.11,0c.72,0,1.11.12,1.22.95.14,1.09,1.05,1.71,2.13,1.66,1.01-.04,1.81-.76,1.92-1.83.06-.56.28-.78.85-.78,1.58.02,3.17-.02,4.75,0,2.48.05,4.54,2.11,4.55,4.61.02,7.56.02,15.12,0,22.68,0,2.45-2.06,4.51-4.52,4.57-1.61.04-3.21,0-4.82.02-.48,0-.72-.15-.82-.65-.22-1.08-1.04-1.75-2.02-1.75s-1.82.64-2.02,1.66c-.14.71-.56.75-1.12.75H5.04c-.59,0-1.18-.03-1.75-.22C1.37,31.03.02,29.28.02,27.24,0,19.73-.01,12.21.02,4.7.03,2.05,2.13.02,4.79.02,10.32.01,15.85.02,21.38.02h0Zm31.06,15.98V4.94c0-2.27-1.58-3.82-3.84-3.82-1.13,0-2.27,0-3.4,0-.45,0-.71.08-.88.57-.45,1.28-1.63,2.07-2.93,2.09-1.32.02-2.54-.79-3.01-2.08-.17-.47-.41-.59-.88-.58-2.24.02-4.49,0-6.73,0H5.04c-2.36,0-3.9,1.54-3.91,3.9v21.83c0,2.24,1.52,3.92,3.61,3.92,10.96.01,21.93,0,32.89.01.45,0,.65-.15.84-.56.55-1.22,1.55-1.83,2.86-1.84,1.35-.01,2.36.63,2.91,1.87.19.43.43.54.86.53,1.11-.02,2.22,0,3.33,0,2.51,0,4.02-1.5,4.02-4.01v-10.78h-.01Z"/>
      <circle class="cls-1" cx="40.96" cy="7.96" r=".57"/>
      <circle class="cls-1" cx="40.96" cy="10.47" r=".57"/>
      <circle class="cls-1" cx="40.96" cy="12.98" r=".57"/>
      <circle class="cls-1" cx="40.96" cy="15.49" r=".57"/>
      <circle class="cls-1" cx="40.96" cy="18" r=".57"/>
      <circle class="cls-1" cx="40.96" cy="20.51" r=".57"/>
      <circle class="cls-1" cx="40.96" cy="23.02" r=".57"/>
      <circle class="cls-1" cx="40.96" cy="25.53" r=".57"/>
      <path class="cls-1" d="m45.65,7.22h3.7c.25,0,.46.21.46.46h0c0,.25-.21.46-.46.46h-3.7c-.25,0-.46-.21-.46-.46h0c0-.25.21-.46.46-.46Z"/>
      <path class="cls-1" d="m45.65,8.95h3.7c.25,0,.46.21.46.46h0c0,.25-.21.46-.46.46h-3.7c-.25,0-.46-.21-.46-.46h0c0-.25.21-.46.46-.46Z"/>
      <path class="cls-1" d="m45.65,9.5h3.7c.25,0,.46.21.46.46h0c0,.25-.21.46-.46.46h-3.7c-.25,0-.46-.21-.46-.46h0c0-.25.21-.46.46-.46Z"/>
      <path class="cls-1" d="m45.65,11.1h3.7c.25,0,.46.21.46.46h0c0,.25-.21.46-.46.46h-3.7c-.25,0-.46-.21-.46-.46h0c0-.25.21-.46.46-.46Z"/>
      <path class="cls-1" d="m45.65,12.83h3.7c.25,0,.46.21.46.46h0c0,.25-.21.46-.46.46h-3.7c-.25,0-.46-.21-.46-.46h0c0-.25.21-.46.46-.46Z"/>
      <path class="cls-1" d="m45.65,14.31h3.7c.25,0,.46.21.46.46h0c0,.25-.21.46-.46.46h-3.7c-.25,0-.46-.21-.46-.46h0c0-.25.21-.46.46-.46Z"/>
      <path class="cls-1" d="m45.65,15.86h3.7c.25,0,.46.21.46.46h0c0,.25-.21.46-.46.46h-3.7c-.25,0-.46-.21-.46-.46h0c0-.25.21-.46.46-.46Z"/>
      <rect class="cls-1" x="45.19" y="17.58" width="4.62" height=".92" rx=".46" ry=".46"/>
      <rect class="cls-1" x="45.19" y="18.14" width="4.62" height=".92" rx=".46" ry=".46"/>
      <rect class="cls-1" x="45.19" y="19.74" width="4.62" height=".92" rx=".46" ry=".46"/>
      <rect class="cls-1" x="45.19" y="21.46" width="4.62" height=".92" rx=".46" ry=".46"/>
      <rect class="cls-1" x="45.19" y="22.94" width="4.62" height=".92" rx=".46" ry=".46"/>
      <rect class="cls-1" x="45.19" y="23.63" width="4.62" height=".92" rx=".46" ry=".46"/>
      <rect class="cls-1" x="45.19" y="25.11" width="4.62" height=".92" rx=".46" ry=".46"/>
      <rect class="cls-1" x="33.85" y="19.21" width="1.43" height="7.17" rx=".46" ry=".46"/>
      <rect class="cls-1" x="31.18" y="19.21" width="1.43" height="7.17" rx=".46" ry=".46"/>
      <rect class="cls-1" x="30.32" y="19.21" width="1.43" height="7.17" rx=".46" ry=".46"/>
      <rect class="cls-1" x="27.83" y="19.21" width="1.43" height="7.17" rx=".46" ry=".46"/>
      <rect class="cls-1" x="25.15" y="19.21" width="1.43" height="7.17" rx=".46" ry=".46"/>
      <rect class="cls-1" x="22.86" y="19.21" width="1.43" height="7.17" rx=".46" ry=".46"/>
      <rect class="cls-1" x="20.46" y="19.21" width="1.43" height="7.17" rx=".46" ry=".46"/>
      <rect class="cls-1" x="17.78" y="19.21" width="1.43" height="7.17" rx=".46" ry=".46"/>
      <rect class="cls-1" x="16.92" y="19.21" width="1.43" height="7.17" rx=".46" ry=".46"/>
      <rect class="cls-1" x="14.44" y="19.2" width="1.43" height="7.17" rx=".46" ry=".46"/>
      <rect class="cls-1" x="11.76" y="19.2" width="1.43" height="7.17" rx=".46" ry=".46"/>
      <rect class="cls-1" x="9.47" y="19.2" width="1.43" height="7.17" rx=".46" ry=".46"/>
      <rect class="cls-1" x="8.39" y="19.21" width="1.43" height="7.17" rx=".46" ry=".46"/>
      <rect class="cls-1" x="6.1" y="19.21" width="1.43" height="7.17" rx=".46" ry=".46"/>
    </g>
  </g>
</svg>